<svg xmlns="http://www.w3.org/2000/svg" xmlns:xlink="http://www.w3.org/1999/xlink" width="280.724" height="288.906" viewBox="0 0 280.724 288.906"><defs><linearGradient id="a" x1="13.21" y1="17.968" x2="13.21" y2="16.969" gradientUnits="objectBoundingBox"><stop offset="0" stop-color="#fff"/><stop offset="1"/></linearGradient><linearGradient id="b" x1="3.716" y1="3.003" x2="3.716" y2="2.003" gradientUnits="objectBoundingBox"><stop offset="0" stop-color="gray" stop-opacity="0.251"/><stop offset="0.535" stop-color="gray" stop-opacity="0.122"/><stop offset="1" stop-color="gray" stop-opacity="0.102"/></linearGradient><linearGradient id="c" x1="1.976" y1="1.899" x2="1.976" y2="0.882" xlink:href="#b"/></defs><g transform="translate(0 0)"><path d="M765.84,280.066c5.023.5,10.062-.642,14.909-2.054,9.611-2.8,19.583-7.246,24.565-15.928a45.95,45.95,0,0,0,3.869-10.233c2.053-7.089,4.119-14.26,4.45-21.633a46.887,46.887,0,0,0-5.1-23.4,5.043,5.043,0,0,0-2.59-2.416c-1.962-.771-3.041.282-3.9,1.38-5.2,6.661-4.659,15.933-5.093,24.37a87.914,87.914,0,0,1-4.919,24.79c-1.2,3.387-2.781,6.912-5.827,8.818a17.745,17.745,0,0,1-6.249,2c-3.235.608-6.766,1.174-9.666-.382-2.97-1.594-4.934-5.723-8.361-6.41-3.39-.679-8.017,2.873-9.531,5.865C748.3,272.937,759.115,279.391,765.84,280.066Z" transform="translate(-558.119 -145.718)" fill="#ffd180"/><g transform="translate(193.378 58.415)" opacity="0.1"><path d="M826.477,263.757a17.748,17.748,0,0,1-6.249,2,21.842,21.842,0,0,1-6.781.5c2.764,1.152,6,.648,8.99.086a17.748,17.748,0,0,0,6.249-2c3.046-1.906,4.627-5.431,5.826-8.818a87.907,87.907,0,0,0,4.919-24.79c.434-8.437-.1-17.709,5.093-24.37a3.585,3.585,0,0,1,2.371-1.617,4.521,4.521,0,0,0-.683-.352c-1.962-.771-3.041.282-3.9,1.38-5.2,6.661-4.659,15.933-5.093,24.37a87.9,87.9,0,0,1-4.919,24.79C831.1,258.326,829.522,261.851,826.477,263.757Z" transform="translate(-791.768 -204.134)"/><path d="M754.608,367.124c1.4-2.766,5.456-6,8.74-5.941a5.429,5.429,0,0,0-1.418-.512c-3.39-.679-8.017,2.873-9.531,5.865-3.824,7.56,5.327,13.681,12.033,15.019C758.132,379.481,751.192,373.877,754.608,367.124Z" transform="translate(-751.496 -305.837)"/></g><rect width="65.165" height="18.864" transform="translate(165.4 60.281) rotate(26.478)" opacity="0.1"/><rect width="65.165" height="17.149" transform="translate(165.4 60.281) rotate(26.478)" fill="#6c63ff"/><circle cx="10.289" cy="10.289" r="10.289" transform="translate(192.447 59.65)" fill="#6c63ff"/><path d="M606.589,53.49s17.815,4.83,24.3,12.1c0,0,10.509-8.92,15.369-6.5s-2.4,21.049-2.4,21.049l-6.431,29.149s3.345,70.415-41.962,84.244S517.7,150.756,528.19,129.7s42-59.962,42-59.962,27.474-30.8,32.328-32.426S606.589,53.49,606.589,53.49Z" transform="translate(-411.669 -37.203)" fill="#ffd180"/><g transform="translate(121.495 0)" opacity="0.1"><path d="M833.336,279.136a143.147,143.147,0,0,0,3.747-35.923l-1.016,4.6a143.114,143.114,0,0,1-2.731,31.32Z" transform="translate(-732.815 -171.122)" fill="#fff"/><path d="M546.185,126.778c10.491-21.061,35.907-52.44,35.907-52.44s27.474-30.8,32.328-32.426,4.072,16.182,4.072,16.182,17.815,4.83,24.3,12.1c0,0,10.509-8.92,15.369-6.5,1.887.94,1.945,4.323,1.313,8.109,1.406-5.3,2.344-11.4-.3-12.712-4.86-2.421-15.369,6.5-15.369,6.5-6.486-7.275-24.3-12.1-24.3-12.1s.783-17.809-4.072-16.182-32.328,32.426-32.328,32.426-25.417,31.379-35.907,52.44C546.252,124.078,545.884,127.382,546.185,126.778Z" transform="translate(-546.082 -37.204)" fill="#fff"/></g><circle cx="3.62" cy="3.62" r="3.62" transform="translate(208.77 56.755)" fill="#58555d"/><circle cx="3.62" cy="3.62" r="3.62" transform="translate(171.508 38.195)" fill="#58555d"/><ellipse cx="3.62" cy="5.43" rx="3.62" ry="5.43" transform="translate(186.48 55.556) rotate(-63.522)" fill="#58555d"/><rect width="1.811" height="16.687" transform="translate(221.893 66.093) rotate(-76.039)" fill="#ffd180"/><rect width="1.809" height="18.458" transform="translate(218.646 72.563) rotate(-74.788)" fill="#ffd180"/><rect width="1.808" height="19.494" transform="matrix(0.746, -0.665, 0.665, 0.746, 150.947, 20.597)" fill="#ffd180"/><rect width="1.81" height="23.806" transform="translate(142.205 26.415) rotate(-54.776)" fill="#ffd180"/><path d="M618.769,304.746s-.937,30.109-16.767,24.829,2.178-24.521,2.178-24.521,1.864-7.449-1.55-9.623" transform="translate(-456.705 -205.067)" opacity="0.1"/><path d="M672.288,339.728s-25.05,16.73-12.193,27.367,19.653-14.826,19.653-14.826,5.334-5.524,8.985-3.778" transform="translate(-496.316 -233.863)" opacity="0.1"/><path d="M615.954,300.9s-.937,30.109-16.767,24.829,2.178-24.521,2.178-24.521,1.864-7.449-1.55-9.623" transform="translate(-454.875 -202.57)" fill="#ffd180"/><path d="M676.679,338.248s-25.05,16.73-12.193,27.367,19.653-14.825,19.653-14.825,5.334-5.524,8.985-3.778" transform="translate(-499.171 -232.901)" fill="#ffd180"/><rect width="5.34" height="0.286" transform="translate(139.711 120.506) rotate(-63.522)" fill="#58555d" opacity="0.5"/><rect width="5.34" height="0.286" transform="translate(143.804 122.545) rotate(-63.522)" fill="#58555d" opacity="0.5"/><rect width="7.475" height="0.286" transform="translate(141.39 121.824) rotate(-63.522)" fill="#58555d" opacity="0.5"/><rect width="5.34" height="0.286" transform="translate(166.827 132.735) rotate(-63.522)" fill="#58555d" opacity="0.5"/><rect width="5.34" height="0.286" transform="translate(170.92 134.774) rotate(-63.522)" fill="#58555d" opacity="0.5"/><rect width="7.475" height="0.286" transform="translate(168.506 134.053) rotate(-63.522)" fill="#58555d" opacity="0.5"/><path d="M651.906,192.655a82.788,82.788,0,0,1-12.118-7.385,78.1,78.1,0,0,1-18.752-19.591l1.867-2.336a85.888,85.888,0,0,0,18.867,19.476c10.664,7.81,31.024,17.2,57.019,16.11l.132,3.147C680.054,202.867,662.955,198.159,651.906,192.655Z" transform="translate(-473.311 -119.201)" opacity="0.1"/><path d="M708.345,247.4l-.056-.166a1.9,1.9,0,0,0,1.353-2.7l.159-.073a2.069,2.069,0,0,1-1.456,2.939Z" transform="translate(-530.031 -171.933)" fill="#4d8af0"/><path d="M708.345,247.4l-.056-.166a1.9,1.9,0,0,0,1.353-2.7l.159-.073a2.069,2.069,0,0,1-1.456,2.939Z" transform="translate(-530.031 -171.933)" opacity="0.1"/><path d="M698.154,197.139c-25.995,1.091-46.355-8.3-57.019-16.11a85.885,85.885,0,0,1-18.867-19.476l-2.689,1.641a87.287,87.287,0,0,0,19.574,20.287,82.8,82.8,0,0,0,12.118,7.385c11.049,5.5,28.148,10.211,47.015,9.42ZM651.9,190.916a.35.35,0,1,1,.469-.157A.35.35,0,0,1,651.9,190.916Z" transform="translate(-472.365 -118.038)" fill="#f55f44"/><path d="M696.059,249.93h0a3.5,3.5,0,0,0,1.572,4.693h0a3.5,3.5,0,0,0,4.693-1.572h0a3.5,3.5,0,0,0-1.572-4.693h0A3.5,3.5,0,0,0,696.059,249.93Zm3.912-.006a.583.583,0,1,1,.782-.262.583.583,0,0,1-.782.262Z" transform="translate(-521.842 -174.228)" opacity="0.1" fill="url(#a)"/><path d="M697.022,250.737h0a3.149,3.149,0,0,0,1.415,4.223h0a3.15,3.15,0,0,0,4.223-1.415h0a3.149,3.149,0,0,0-1.415-4.223h0A3.149,3.149,0,0,0,697.022,250.737Zm3.521-.005a.525.525,0,1,1,.7-.236.525.525,0,0,1-.7.236Z" transform="translate(-522.492 -174.878)" fill="#05668d"/><path d="M707.747,247.254a2.069,2.069,0,0,1,1.469-2.932l.037.171a1.9,1.9,0,0,0-1.34,2.706Z" transform="translate(-529.545 -171.843)" fill="#4d8af0"/><path d="M513.488,207.363h0" transform="translate(-333.798 -134.799)" fill="#4d8af0"/><path d="M702.911,200.635C647.151,204.528,634,168.658,634,168.658Z" transform="translate(-481.741 -122.657)" fill="#ffd180"/><path d="M401.576,615.539H394.27V677.31s47.159,15.277,92.99,0V615.539Z" transform="translate(-325.9 -413.157)" fill="#3f3d56"/><ellipse cx="45.831" cy="6.974" rx="45.831" ry="6.974" transform="translate(68.37 195.74)" fill="#3f3d56"/><ellipse cx="45.831" cy="6.974" rx="45.831" ry="6.974" transform="translate(68.37 195.74)" opacity="0.1"/><path d="M558.686,245.691c-11.562,42.739-51.162,69.208-51.162,69.208s-20.856-42.824-9.294-85.563,51.163-69.208,51.163-69.208S570.248,202.952,558.686,245.691Z" transform="translate(-391.21 -117.112)" fill="#3f3d56"/><path d="M370.432,245.691c11.562,42.738,51.163,69.208,51.163,69.208s20.856-42.824,9.294-85.563-51.163-69.208-51.163-69.208S358.87,202.952,370.432,245.691Z" transform="translate(-308.134 -117.112)" fill="#00a896"/><path d="M278.18,316.194c31.725,30.883,35.6,78.358,35.6,78.358s-47.562-2.6-79.287-33.48-35.6-78.358-35.6-78.358S246.455,285.311,278.18,316.194Z" transform="translate(-198.893 -196.8)" fill="#3f3d56"/><path d="M562.8,316.194c-31.725,30.883-35.6,78.358-35.6,78.358s47.562-2.6,79.287-33.48,35.6-78.358,35.6-78.358S594.523,285.311,562.8,316.194Z" transform="translate(-412.311 -196.8)" fill="#3f3d56"/><circle cx="14.613" cy="14.613" r="14.613" transform="translate(100.253 28.358)" fill="#00a896"/><g transform="translate(214.936 223.117)" opacity="0.5"><circle cx="32.894" cy="32.894" r="32.894" fill="url(#b)"/></g><circle cx="30.795" cy="30.795" r="30.795" transform="translate(217.036 225.217)" fill="#f55f44"/><g transform="translate(124.962 153.869)" opacity="0.5"><path d="M589.507,600.063c-4.65.411-9.763-1.9-10.767-6.508-.58-2.662.338-5.265,1.225-7.781.972-2.758,1.812-5.141.6-7.1a7.457,7.457,0,0,0-2.48-2.169c-1.253-.78-2.6-1.5-3.9-2.2a42.721,42.721,0,0,1-6.635-4.1c-4.059-3.243-6.111-7.569-5.491-11.572.536-3.459,2.875-6.108,5.137-8.671,2.319-2.628,4.51-5.11,4.459-8.149-.069-4.132-4.293-7.1-8.02-9.717l-.581-.409c-4.547-3.207-8.915-8.774-6.26-13.906a12.33,12.33,0,0,1,3.97-4.053,14.7,14.7,0,0,0,2.738-2.393c2.734-3.387,1.339-8.4.612-10.4-.553-1.52-1.275-3.036-1.974-4.5a37.894,37.894,0,0,1-2.719-6.823l-.1-.4c-1.494-5.816-1.492-6.033.086-11.614l.2-.7,2.358.665-.2.7c-1.429,5.051-1.429,5.051-.071,10.339l.1.4a35.516,35.516,0,0,0,2.557,6.377c.723,1.519,1.472,3.089,2.064,4.72,1.836,5.052,1.469,9.709-1.008,12.777a16.735,16.735,0,0,1-3.182,2.821,10.369,10.369,0,0,0-3.256,3.213c-2.065,3.991,2.483,8.653,5.5,10.778l.578.407c4,2.808,8.971,6.3,9.061,11.68.067,3.988-2.545,6.948-5.072,9.811-2.122,2.4-4.126,4.675-4.552,7.426-.57,3.679,2,7.207,4.6,9.283a40.263,40.263,0,0,0,6.262,3.851c1.335.715,2.715,1.454,4.036,2.276a9.58,9.58,0,0,1,3.269,2.96c1.831,2.959.711,6.135-.371,9.206-.809,2.3-1.574,4.463-1.142,6.445.78,3.582,5.479,5.212,9.207,4.435,3.051-.636,5.736-2.312,8.578-4.085.919-.574,1.87-1.167,2.828-1.717,5.226-3,9.961-3.735,13.694-2.122a18.088,18.088,0,0,1,3.318,2.025,18.271,18.271,0,0,0,2.545,1.623,8.8,8.8,0,0,0,11.285-3.919c.18-.374.341-.776.513-1.2a7.778,7.778,0,0,1,2.567-3.84,7.859,7.859,0,0,1,4.615-.979l13.7.116-.021,2.449-13.695-.116a3.919,3.919,0,0,0-4.889,3.284c-.178.443-.363.9-.577,1.346a11.246,11.246,0,0,1-14.568,5.06,20.377,20.377,0,0,1-2.9-1.831,16.011,16.011,0,0,0-2.865-1.769c-3.784-1.637-8.343.183-11.5,2-.919.528-1.85,1.109-2.751,1.671-2.9,1.81-5.9,3.68-9.376,4.405A11.505,11.505,0,0,1,589.507,600.063Z" transform="translate(-555.987 -476.905)" fill="url(#c)"/></g><path d="M591.235,596.9c-4.65.411-9.763-1.9-10.767-6.508-.58-2.662.338-5.265,1.225-7.781.972-2.758,1.813-5.141.6-7.1a7.459,7.459,0,0,0-2.48-2.169c-1.253-.78-2.6-1.5-3.9-2.2a42.721,42.721,0,0,1-6.635-4.1c-4.059-3.243-6.111-7.569-5.491-11.572.536-3.459,2.875-6.108,5.137-8.671,2.319-2.628,4.51-5.11,4.459-8.149-.069-4.132-4.293-7.1-8.02-9.717l-.581-.409c-4.547-3.207-8.915-8.774-6.26-13.906a12.33,12.33,0,0,1,3.97-4.053,14.7,14.7,0,0,0,2.738-2.393c2.734-3.386,1.339-8.4.612-10.4-.553-1.52-1.275-3.036-1.974-4.5a37.894,37.894,0,0,1-2.719-6.823l-.1-.4c-1.494-5.816-1.492-6.034.086-11.614l.2-.7,2.358.665-.2.7c-1.429,5.051-1.429,5.051-.071,10.339l.1.4a35.513,35.513,0,0,0,2.557,6.377c.723,1.519,1.472,3.089,2.064,4.72,1.836,5.052,1.469,9.709-1.008,12.777a16.737,16.737,0,0,1-3.183,2.821,10.37,10.37,0,0,0-3.256,3.213c-2.065,3.991,2.483,8.653,5.5,10.778l.578.407c4,2.808,8.971,6.3,9.061,11.68.067,3.989-2.545,6.948-5.072,9.811-2.122,2.4-4.126,4.675-4.552,7.426-.57,3.679,2,7.207,4.6,9.283a40.258,40.258,0,0,0,6.262,3.851c1.335.715,2.715,1.454,4.036,2.276a9.579,9.579,0,0,1,3.269,2.96c1.831,2.959.711,6.135-.371,9.206-.809,2.3-1.573,4.463-1.142,6.445.78,3.582,5.479,5.212,9.207,4.435,3.051-.636,5.736-2.312,8.578-4.085.919-.574,1.87-1.167,2.827-1.717,5.226-3,9.961-3.735,13.694-2.122a18.1,18.1,0,0,1,3.318,2.025,18.277,18.277,0,0,0,2.545,1.622,8.8,8.8,0,0,0,11.285-3.919c.18-.374.341-.776.513-1.2a7.779,7.779,0,0,1,2.567-3.84,7.859,7.859,0,0,1,4.615-.979l13.7.116-.021,2.449-13.695-.116a3.919,3.919,0,0,0-4.889,3.284c-.178.442-.363.9-.577,1.346a11.246,11.246,0,0,1-14.568,5.06,20.381,20.381,0,0,1-2.9-1.831,16,16,0,0,0-2.865-1.769c-3.784-1.637-8.343.183-11.5,2-.919.528-1.85,1.109-2.751,1.671-2.9,1.81-5.9,3.68-9.376,4.405A11.492,11.492,0,0,1,591.235,596.9Z" transform="translate(-432.149 -320.979)" fill="#f55f44"/><path d="M916.675,706.708s17.168,1.469,19.734,26.536" transform="translate(-665.495 -472.422)" fill="none" stroke="#000" stroke-miterlimit="10" stroke-width="1" opacity="0.2"/><path d="M836.854,735.689s-8.122-20.361,18.4-34.3" transform="translate(-612.844 -468.967)" fill="none" stroke="#000" stroke-miterlimit="10" stroke-width="1" opacity="0.2"/><path d="M856.223,752.637s-3.743-10.56,4.448-17.255" transform="translate(-625.643 -491.061)" fill="none" stroke="#000" stroke-miterlimit="10" stroke-width="1" opacity="0.2"/><path d="M902.4,732.565s7.116,4.992,4.862,19.243" transform="translate(-656.212 -489.231)" fill="none" stroke="#000" stroke-miterlimit="10" stroke-width="1" opacity="0.2"/><path d="M939.98,692.1s11.709,5.289,16.191,24.214" transform="translate(-680.644 -462.927)" fill="none" stroke="#000" stroke-miterlimit="10" stroke-width="1" opacity="0.2"/><path d="M891.17,694.53s6.787-2.707,11.657.727" transform="translate(-648.915 -463.847)" fill="none" stroke="#000" stroke-miterlimit="10" stroke-width="1" opacity="0.2"/><path d="M877.119,805.17s6.573,6.8,29.978-2.648" transform="translate(-639.781 -534.707)" fill="none" stroke="#000" stroke-miterlimit="10" stroke-width="1" opacity="0.2"/><path d="M838.529,704.649a26.94,26.94,0,0,0-8.733,20.444" transform="translate(-609.017 -471.084)" fill="none" stroke="#000" stroke-miterlimit="10" stroke-width="1" opacity="0.2"/><path d="M851.383,798.256s-1.722,4.368,2.8,7.833" transform="translate(-622.842 -531.934)" fill="none" stroke="#000" stroke-miterlimit="10" stroke-width="1" opacity="0.2"/><path d="M956.859,810.871s-2.4,8.643-7.371,8.029" transform="translate(-686.825 -540.134)" fill="none" stroke="#000" stroke-miterlimit="10" stroke-width="1" opacity="0.2"/><path d="M928.618,745.307a9.7,9.7,0,0,1,1.846,8.971" transform="translate(-673.258 -497.514)" fill="none" stroke="#000" stroke-miterlimit="10" stroke-width="1" opacity="0.2"/><path d="M876.412,750.7s-2.645,5.854-.5,10.232" transform="translate(-638.451 -501.022)" fill="none" stroke="#000" stroke-miterlimit="10" stroke-width="1" opacity="0.2"/><path d="M889.858,749.735s3.025,6.407.893,10.109" transform="translate(-648.062 -500.392)" fill="none" stroke="#000" stroke-miterlimit="10" stroke-width="1" opacity="0.2"/></g></svg>