<svg xmlns="http://www.w3.org/2000/svg" xmlns:xlink="http://www.w3.org/1999/xlink" width="417.763" height="241.554" viewBox="0 0 417.763 241.554"><defs><linearGradient id="a" x1="0.5" y1="1" x2="0.5" gradientUnits="objectBoundingBox"><stop offset="0" stop-color="gray" stop-opacity="0.251"/><stop offset="0.54" stop-color="gray" stop-opacity="0.122"/><stop offset="1" stop-color="gray" stop-opacity="0.102"/></linearGradient><linearGradient id="b" x1="0" y1="0.5" x2="1" y2="0.5" xlink:href="#a"/></defs><g transform="translate(0 -0.031)"><g transform="translate(0 37.012)" opacity="0.7"><ellipse cx="208.881" cy="102.286" rx="208.881" ry="102.286" fill="url(#a)"/></g><ellipse cx="199.841" cy="97.859" rx="199.841" ry="97.859" transform="translate(9.04 41.439)" fill="#05668d"/><g transform="translate(253.561 121.241)" opacity="0.5"><path d="M808.724,529.07l-3.57-5.352-7.09-23.437-2.917-10.36h-2.966a5.358,5.358,0,0,0,.05-.671,4.708,4.708,0,0,0-2.3-4.042,4.025,4.025,0,0,0,.027-.454,4.722,4.722,0,0,0-1.043-2.957h0a4.58,4.58,0,0,0-.726-.726h-.032c-.118-.1-.24-.181-.363-.263l-.1-.063c-.1-.064-.213-.123-.322-.177l-.145-.073-.308-.132-.163-.059c-.1-.036-.213-.064-.318-.1l-.177-.041c-.113-.027-.227-.045-.345-.064h-.159a4.965,4.965,0,0,0-.522-.032,1.835,1.835,0,0,1-3.583-.413h0a4.989,4.989,0,0,0-.726-.726.082.082,0,0,1-.032,0q-.177-.136-.367-.259l-.1-.068c-.1-.064-.209-.122-.318-.177l-.145-.068c-.1-.05-.2-.091-.308-.132l-.168-.064-.318-.091-.172-.045a3.037,3.037,0,0,0-.345-.059l-.159-.027a4.956,4.956,0,0,0-.522-.027,3.206,3.206,0,0,0-.553.032,4.708,4.708,0,0,0-.49-5.171h0a4.781,4.781,0,0,0-.635-.748,4.7,4.7,0,0,0,.29-6.237h0a4.575,4.575,0,0,0-.726-.726l-.018-.023c-.118-.1-.24-.181-.363-.263l-.1-.063c-.1-.064-.213-.122-.322-.177l-.141-.073-.313-.132-.163-.059c-.1-.036-.213-.064-.318-.1a.858.858,0,0,0-.172-.041c-.059-.009-.231-.045-.349-.064l-.159-.023a4.967,4.967,0,0,0-.522-.032h-.372c-.1-.15-.195-.29-.3-.454h0a4.984,4.984,0,0,0-.726-.726.081.081,0,0,1-.032-.023,4.145,4.145,0,0,0-.367-.259l-.1-.068c-.1-.064-.209-.122-.318-.177l-.145-.068c-.1-.05-.2-.091-.308-.132l-.168-.064-.318-.091-.172-.045c-.113-.027-.231-.045-.345-.064l-.2.014a4.964,4.964,0,0,0-.522-.027,4.668,4.668,0,0,0-4.014,2.3h0c-.118-.027-.231-.045-.349-.064l-.159-.023a4.955,4.955,0,0,0-.522-.032h-.231a4.736,4.736,0,0,0-.807-4.423h0a5,5,0,0,0-.726-.726l-.032-.023a4.169,4.169,0,0,0-.367-.263l-.1-.063c-.1-.064-.209-.122-.318-.177l-.145-.073-.308-.132-.168-.059c-.1-.036-.209-.064-.317-.1l-.172-.041c-.113-.027-.231-.045-.345-.064l-.163-.023a4.8,4.8,0,0,0-.517-.032,4.722,4.722,0,0,0-4.082,2.386c-.082-.059-.159-.118-.245-.172l-.1-.064a3.674,3.674,0,0,0-.322-.181l-.141-.068c-.1-.05-.2-.091-.308-.132l-.113-.045a4.718,4.718,0,0,0,1.021-6.858h0a4.581,4.581,0,0,0-.726-.726h-.032a4.076,4.076,0,0,0-.363-.263l-.1-.064c-.1-.064-.213-.122-.322-.181l-.141-.068-.313-.132-.163-.059c-.1-.036-.209-.064-.318-.1l-.172-.045-.349-.059h-.159a4.947,4.947,0,0,0-.522-.032,4.722,4.722,0,0,0-4.722,4.727v.127c-.1.027-.213.05-.318.082a4.731,4.731,0,0,0-3.107,3.107,4.649,4.649,0,0,0-.213,1.406,4.932,4.932,0,0,0,.027.522l.027.159v.109l-.054-.032-.1-.064-.318-.181-.145-.068-.308-.132-.168-.059a3.244,3.244,0,0,0-.318-.1l-.172-.045-.345-.059-.159-.023a4.966,4.966,0,0,0-.522-.032,4.727,4.727,0,0,0-4.727,4.727,4.863,4.863,0,0,0,.032.517c0,.054,0,.109,0,.159a1.528,1.528,0,0,0,.064.349c.027.113.027.113.045.172s.059.213.091.318l.064.163c.041.109.082.209.131.313l.068.141c.054.109.113.218.177.322l.068.1a4.036,4.036,0,0,0,.259.363l.023.032.068.086h-.082c-.113-.027-.231-.045-.349-.063l-.159-.023a4.947,4.947,0,0,0-.522-.032,4.722,4.722,0,0,0-4.509,3.32,4.867,4.867,0,0,0-.159.731H730.4l-.109-.068c-.1-.064-.209-.123-.318-.177l-.145-.068c-.1-.05-.2-.091-.309-.132l-.163-.064-.318-.091-.172-.045c-.118-.027-.231-.045-.349-.063l-.159-.023a4.949,4.949,0,0,0-.522-.032,4.727,4.727,0,0,0-4.722,4.727,4.963,4.963,0,0,0,.027.522l.027.159a1.831,1.831,0,0,0,.059.345,1.58,1.58,0,0,0,.045.172c.014.054.059.218.1.322s.036.109.059.163.082.209.131.308l.068.145c.054.109.118.213.182.318a.79.79,0,0,0,.063.1q.122.191.259.367l.027.032v.027a4.7,4.7,0,0,0-.7,2.468,4.879,4.879,0,0,0,.027.517l.027.159a1.815,1.815,0,0,0,.059.349c.023.113.032.113.045.172s.059.213.1.318.036.109.059.163.086.213.132.313l.068.141a3.688,3.688,0,0,0,.181.322c0,.036.041.073.064.1h0a4.708,4.708,0,0,0-4.178,3.3,4.648,4.648,0,0,0-.213,1.406,4.932,4.932,0,0,0,.027.522l.027.159a3.051,3.051,0,0,0,.059.345l.041.168h-7.072L702.714,523.65,698.5,529.07Zm-63.449-53.384-.091-.141.218-.059Zm22.14-4.382.077-.132.172.036C767.583,471.241,767.5,471.268,767.415,471.3Z" transform="translate(-698.5 -450.97)" fill="url(#b)"/></g><circle cx="4.472" cy="4.472" r="4.472" transform="translate(270.752 168.356)" fill="#795548"/><path d="M737.087,560a4.463,4.463,0,0,1,7.258-3.484,4.468,4.468,0,1,0-6.282,6.278,4.428,4.428,0,0,1-.975-2.794Z" transform="translate(-465.641 -386.485)" fill="#fff" opacity="0.05"/><circle cx="4.472" cy="4.472" r="4.472" transform="translate(286.229 169.39)" fill="#795548"/><path d="M771.169,562.288a4.468,4.468,0,0,1,7.258-3.484,4.468,4.468,0,1,0-6.282,6.282,4.468,4.468,0,0,1-.975-2.8Z" transform="translate(-484.269 -387.741)" fill="#fff" opacity="0.05"/><circle cx="4.472" cy="4.472" r="4.472" transform="translate(295.169 170.075)" fill="#795548"/><path d="M790.919,563.8a4.463,4.463,0,0,1,7.258-3.484,4.468,4.468,0,1,0-6.282,6.282A4.477,4.477,0,0,1,790.919,563.8Z" transform="translate(-495.06 -388.566)" fill="#fff" opacity="0.05"/><circle cx="4.472" cy="4.472" r="4.472" transform="translate(299.637 168.356)" fill="#795548"/><path d="M800.757,560a4.468,4.468,0,0,1,7.258-3.484,4.468,4.468,0,1,0-6.282,6.278,4.432,4.432,0,0,1-.975-2.794Z" transform="translate(-500.43 -386.485)" fill="#fff" opacity="0.05"/><circle cx="4.472" cy="4.472" r="4.472" transform="translate(334.369 168.356)" fill="#795548"/><path d="M877.327,560a4.463,4.463,0,0,1,7.258-3.484A4.468,4.468,0,1,0,878.3,562.8,4.455,4.455,0,0,1,877.327,560Z" transform="translate(-542.268 -386.485)" fill="#fff" opacity="0.05"/><circle cx="4.472" cy="4.472" r="4.472" transform="translate(316.833 168.015)" fill="#795548"/><path d="M838.679,559.258a4.468,4.468,0,0,1,7.258-3.484,4.468,4.468,0,1,0-6.282,6.282A4.441,4.441,0,0,1,838.679,559.258Z" transform="translate(-521.157 -386.085)" fill="#fff" opacity="0.05"/><circle cx="4.472" cy="4.472" r="4.472" transform="translate(277.288 164.232)" fill="#795548"/><path d="M751.5,550.918a4.468,4.468,0,0,1,7.258-3.484,4.468,4.468,0,1,0-6.282,6.282A4.467,4.467,0,0,1,751.5,550.918Z" transform="translate(-473.521 -381.528)" fill="#fff" opacity="0.05"/><circle cx="4.472" cy="4.472" r="4.472" transform="translate(313.395 154.947)" fill="#795548"/><path d="M831.137,530.464a4.468,4.468,0,0,1,7.289-3.47,4.468,4.468,0,1,0-6.282,6.282A4.441,4.441,0,0,1,831.137,530.464Z" transform="translate(-517.053 -370.36)" fill="#fff" opacity="0.05"/><circle cx="4.472" cy="4.472" r="4.472" transform="translate(299.637 144.633)" fill="#795548"/><circle cx="4.472" cy="4.472" r="4.472" transform="translate(304.091 137.751)" fill="#795548"/><path d="M800.769,507.708a4.472,4.472,0,0,1,7.258-3.484,4.468,4.468,0,1,0-6.282,6.282,4.446,4.446,0,0,1-.975-2.8Z" transform="translate(-500.443 -357.918)" fill="#fff" opacity="0.05"/><circle cx="4.472" cy="4.472" r="4.472" transform="translate(285.194 148.071)" fill="#795548"/><path d="M768.939,515.288A4.468,4.468,0,0,1,776.2,511.8a4.468,4.468,0,1,0-6.282,6.282,4.44,4.44,0,0,1-.975-2.8Z" transform="translate(-483.051 -362.06)" fill="#fff" opacity="0.05"/><circle cx="4.472" cy="4.472" r="4.472" transform="translate(276.254 154.603)" fill="#795548"/><path d="M749.219,529.692a4.472,4.472,0,0,1,7.258-3.488,4.468,4.468,0,1,0-6.282,6.282A4.44,4.44,0,0,1,749.219,529.692Z" transform="translate(-472.275 -369.928)" fill="#fff" opacity="0.05"/><circle cx="4.472" cy="4.472" r="4.472" transform="translate(303.075 157.011)" fill="#795548"/><path d="M808.359,535a4.468,4.468,0,0,1,7.258-3.484,4.468,4.468,0,1,0-6.282,6.282,4.44,4.44,0,0,1-.975-2.8Z" transform="translate(-504.59 -372.829)" fill="#fff" opacity="0.05"/><circle cx="4.472" cy="4.472" r="4.472" transform="translate(313.05 135.692)" fill="#795548"/><path d="M830.339,488a4.468,4.468,0,0,1,7.258-3.484,4.468,4.468,0,1,0-6.282,6.282A4.468,4.468,0,0,1,830.339,488Z" transform="translate(-516.6 -347.148)" fill="#fff" opacity="0.05"/><circle cx="4.472" cy="4.472" r="4.472" transform="translate(302.046 131.22)" fill="#795548"/><path d="M806.079,478.143a4.468,4.468,0,0,1,7.258-3.488,4.468,4.468,0,1,0-6.282,6.282,4.464,4.464,0,0,1-.975-2.794Z" transform="translate(-503.344 -341.761)" fill="#fff" opacity="0.05"/><circle cx="4.472" cy="4.472" r="4.472" transform="translate(290.697 132.254)" fill="#795548"/><path d="M781.059,480.418a4.473,4.473,0,0,1,7.258-3.484,4.468,4.468,0,1,0-6.282,6.282A4.445,4.445,0,0,1,781.059,480.418Z" transform="translate(-489.673 -343.007)" fill="#fff" opacity="0.05"/><circle cx="4.472" cy="4.472" r="4.472" transform="translate(290.697 139.475)" fill="#795548"/><path d="M781.059,496.338a4.472,4.472,0,0,1,7.258-3.484,4.468,4.468,0,1,0-6.282,6.282A4.445,4.445,0,0,1,781.059,496.338Z" transform="translate(-489.673 -351.705)" fill="#fff" opacity="0.05"/><circle cx="4.472" cy="4.472" r="4.472" transform="translate(309.267 150.82)" fill="#795548"/><path d="M821.968,521.319a4.463,4.463,0,0,1,7.258-3.484,4.468,4.468,0,1,0-6.273,6.278,4.463,4.463,0,0,1-.984-2.794Z" transform="translate(-512.012 -365.337)" fill="#fff" opacity="0.05"/><circle cx="4.472" cy="4.472" r="4.472" transform="translate(314.424 148.416)" fill="#795548"/><path d="M833.359,516.035a4.468,4.468,0,0,1,7.258-3.484,4.468,4.468,0,1,0-6.278,6.282A4.445,4.445,0,0,1,833.359,516.035Z" transform="translate(-518.245 -362.462)" fill="#fff" opacity="0.05"/><circle cx="4.472" cy="4.472" r="4.472" transform="translate(285.194 163.888)" fill="#795548"/><circle cx="4.472" cy="4.472" r="4.472" transform="translate(285.194 163.888)" fill="#fff" opacity="0.1"/><path d="M768.939,550.158a4.468,4.468,0,0,1,7.258-3.484,4.468,4.468,0,1,0-6.282,6.282,4.441,4.441,0,0,1-.975-2.8Z" transform="translate(-483.051 -381.113)" fill="#fff" opacity="0.05"/><circle cx="4.472" cy="4.472" r="4.472" transform="translate(299.297 161.479)" fill="#795548"/><circle cx="4.472" cy="4.472" r="4.472" transform="translate(299.297 161.479)" fill="#fff" opacity="0.1"/><path d="M800.006,544.842a4.463,4.463,0,0,1,7.257-3.484,4.468,4.468,0,1,0-6.282,6.278A4.44,4.44,0,0,1,800.006,544.842Z" transform="translate(-500.02 -378.201)" fill="#fff" opacity="0.05"/><circle cx="4.472" cy="4.472" r="4.472" transform="translate(294.135 165.607)" fill="#795548"/><circle cx="4.472" cy="4.472" r="4.472" transform="translate(294.135 165.607)" fill="#fff" opacity="0.1"/><path d="M788.649,553.948a4.468,4.468,0,0,1,7.258-3.484,4.468,4.468,0,1,0-6.282,6.282A4.441,4.441,0,0,1,788.649,553.948Z" transform="translate(-493.82 -383.184)" fill="#fff" opacity="0.05"/><circle cx="4.472" cy="4.472" r="4.472" transform="translate(277.288 169.045)" fill="#795548"/><circle cx="4.472" cy="4.472" r="4.472" transform="translate(277.288 169.045)" fill="#fff" opacity="0.1"/><path d="M751.48,561.508a4.468,4.468,0,0,1,7.258-3.488,4.468,4.468,0,1,0-6.273,6.282,4.463,4.463,0,0,1-.984-2.794Z" transform="translate(-473.502 -387.301)" fill="#fff" opacity="0.05"/><circle cx="4.472" cy="4.472" r="4.472" transform="translate(281.756 165.607)" fill="#795548"/><circle cx="4.472" cy="4.472" r="4.472" transform="translate(281.756 165.607)" fill="#fff" opacity="0.1"/><path d="M761.339,553.936a4.468,4.468,0,0,1,7.258-3.484,4.468,4.468,0,1,0-6.278,6.282A4.446,4.446,0,0,1,761.339,553.936Z" transform="translate(-478.894 -383.171)" fill="#fff" opacity="0.05"/><circle cx="4.472" cy="4.472" r="4.472" transform="translate(281.756 158.041)" fill="#795548"/><circle cx="4.472" cy="4.472" r="4.472" transform="translate(281.756 158.041)" fill="#fff" opacity="0.1"/><path d="M761.327,537.251a4.463,4.463,0,0,1,7.258-3.484,4.468,4.468,0,1,0-6.278,6.278,4.442,4.442,0,0,1-.98-2.794Z" transform="translate(-478.881 -374.048)" fill="#fff" opacity="0.05"/><circle cx="4.472" cy="4.472" r="4.472" transform="translate(290.356 151.164)" fill="#795548"/><circle cx="4.472" cy="4.472" r="4.472" transform="translate(290.356 151.164)" fill="#fff" opacity="0.1"/><path d="M780.309,522.112a4.468,4.468,0,0,1,7.258-3.488,4.468,4.468,0,1,0-6.282,6.282A4.441,4.441,0,0,1,780.309,522.112Z" transform="translate(-489.263 -365.786)" fill="#fff" opacity="0.05"/><circle cx="4.472" cy="4.472" r="4.472" transform="translate(305.484 168.015)" fill="#795548"/><circle cx="4.472" cy="4.472" r="4.472" transform="translate(305.484 168.015)" fill="#fff" opacity="0.1"/><path d="M813.649,559.246a4.468,4.468,0,0,1,7.258-3.484,4.468,4.468,0,1,0-6.278,6.282A4.444,4.444,0,0,1,813.649,559.246Z" transform="translate(-507.476 -386.073)" fill="#fff" opacity="0.05"/><circle cx="4.472" cy="4.472" r="4.472" transform="translate(317.863 154.258)" fill="#795548"/><circle cx="4.472" cy="4.472" r="4.472" transform="translate(317.863 154.258)" fill="#fff" opacity="0.1"/><path d="M840.876,528.845a4.463,4.463,0,0,1,7.258-3.484,4.468,4.468,0,1,0-6.251,6.278A4.441,4.441,0,0,1,840.876,528.845Z" transform="translate(-522.324 -369.425)" fill="#fff" opacity="0.05"/><circle cx="4.472" cy="4.472" r="4.472" transform="translate(317.863 133.628)" fill="#795548"/><circle cx="4.472" cy="4.472" r="4.472" transform="translate(317.863 133.628)" fill="#fff" opacity="0.1"/><path d="M840.886,483.368a4.468,4.468,0,0,1,7.258-3.484,4.468,4.468,0,1,0-6.251,6.282A4.446,4.446,0,0,1,840.886,483.368Z" transform="translate(-522.334 -344.583)" fill="#fff" opacity="0.05"/><circle cx="4.472" cy="4.472" r="4.472" transform="translate(322.335 142.224)" fill="#795548"/><circle cx="4.472" cy="4.472" r="4.472" transform="translate(322.335 142.224)" fill="#fff" opacity="0.1"/><path d="M850.809,502.4a4.468,4.468,0,0,1,7.258-3.488,4.468,4.468,0,1,0-6.282,6.282A4.44,4.44,0,0,1,850.809,502.4Z" transform="translate(-527.784 -355.016)" fill="#fff" opacity="0.05"/><circle cx="4.472" cy="4.472" r="4.472" transform="translate(326.803 148.756)" fill="#795548"/><circle cx="4.472" cy="4.472" r="4.472" transform="translate(326.803 148.756)" fill="#fff" opacity="0.1"/><path d="M860.637,516.771a4.463,4.463,0,0,1,7.258-3.484,4.468,4.468,0,1,0-6.278,6.278A4.431,4.431,0,0,1,860.637,516.771Z" transform="translate(-533.145 -362.857)" fill="#fff" opacity="0.05"/><circle cx="4.472" cy="4.472" r="4.472" transform="translate(305.484 141.194)" fill="#795548"/><circle cx="4.472" cy="4.472" r="4.472" transform="translate(305.484 141.194)" fill="#fff" opacity="0.1"/><path d="M813.649,500.116a4.468,4.468,0,0,1,7.258-3.484,4.468,4.468,0,1,0-6.278,6.282A4.444,4.444,0,0,1,813.649,500.116Z" transform="translate(-507.476 -353.764)" fill="#fff" opacity="0.05"/><circle cx="4.472" cy="4.472" r="4.472" transform="translate(292.076 144.633)" fill="#795548"/><circle cx="4.472" cy="4.472" r="4.472" transform="translate(292.076 144.633)" fill="#fff" opacity="0.1"/><path d="M784.1,507.708a4.468,4.468,0,0,1,7.258-3.484,4.468,4.468,0,1,0-6.282,6.282A4.44,4.44,0,0,1,784.1,507.708Z" transform="translate(-491.334 -357.918)" fill="#fff" opacity="0.05"/><circle cx="4.472" cy="4.472" r="4.472" transform="translate(300.671 139.475)" fill="#795548"/><circle cx="4.472" cy="4.472" r="4.472" transform="translate(300.671 139.475)" fill="#fff" opacity="0.1"/><path d="M803.049,496.338a4.468,4.468,0,0,1,7.258-3.484,4.468,4.468,0,1,0-6.282,6.282A4.441,4.441,0,0,1,803.049,496.338Z" transform="translate(-501.688 -351.705)" fill="#fff" opacity="0.05"/><circle cx="4.472" cy="4.472" r="4.472" transform="translate(308.577 135.692)" fill="#795548"/><circle cx="4.472" cy="4.472" r="4.472" transform="translate(308.577 135.692)" fill="#fff" opacity="0.1"/><path d="M820.479,488a4.472,4.472,0,0,1,7.258-3.484,4.468,4.468,0,1,0-6.282,6.282,4.446,4.446,0,0,1-.975-2.8Z" transform="translate(-511.212 -347.148)" fill="#fff" opacity="0.05"/><circle cx="4.472" cy="4.472" r="4.472" transform="translate(286.229 139.475)" fill="#795548"/><circle cx="4.472" cy="4.472" r="4.472" transform="translate(286.229 139.475)" fill="#fff" opacity="0.1"/><path d="M771.169,496.338a4.468,4.468,0,0,1,7.258-3.484,4.468,4.468,0,1,0-6.282,6.282,4.468,4.468,0,0,1-.975-2.8Z" transform="translate(-484.269 -351.705)" fill="#fff" opacity="0.05"/><circle cx="4.472" cy="4.472" r="4.472" transform="translate(302.046 153.913)" fill="#795548"/><circle cx="4.472" cy="4.472" r="4.472" transform="translate(302.046 153.913)" fill="#fff" opacity="0.1"/><path d="M806.079,528.178a4.463,4.463,0,0,1,7.258-3.484,4.468,4.468,0,1,0-6.282,6.282A4.478,4.478,0,0,1,806.079,528.178Z" transform="translate(-503.344 -369.103)" fill="#fff" opacity="0.05"/><circle cx="4.472" cy="4.472" r="4.472" transform="translate(283.135 153.573)" fill="#795548"/><circle cx="4.472" cy="4.472" r="4.472" transform="translate(283.135 153.573)" fill="#fff" opacity="0.1"/><path d="M764.389,527.418a4.468,4.468,0,0,1,7.258-3.484,4.468,4.468,0,1,0-6.282,6.282A4.441,4.441,0,0,1,764.389,527.418Z" transform="translate(-480.564 -368.687)" fill="#fff" opacity="0.05"/><circle cx="4.472" cy="4.472" r="4.472" transform="translate(312.016 160.105)" fill="#795548"/><circle cx="4.472" cy="4.472" r="4.472" transform="translate(312.016 160.105)" fill="#fff" opacity="0.1"/><path d="M828.069,541.792a4.468,4.468,0,0,1,7.258-3.488,4.468,4.468,0,1,0-6.282,6.282A4.441,4.441,0,0,1,828.069,541.792Z" transform="translate(-515.359 -376.539)" fill="#fff" opacity="0.05"/><circle cx="4.472" cy="4.472" r="4.472" transform="translate(318.897 162.513)" fill="#795548"/><circle cx="4.472" cy="4.472" r="4.472" transform="translate(318.897 162.513)" fill="#fff" opacity="0.1"/><path d="M843.229,547.128a4.468,4.468,0,0,1,7.258-3.484,4.468,4.468,0,1,0-6.282,6.282A4.44,4.44,0,0,1,843.229,547.128Z" transform="translate(-523.643 -379.457)" fill="#fff" opacity="0.05"/><circle cx="4.472" cy="4.472" r="4.472" transform="translate(324.739 166.981)" fill="#795548"/><circle cx="4.472" cy="4.472" r="4.472" transform="translate(324.739 166.981)" fill="#fff" opacity="0.1"/><path d="M856.1,556.973a4.468,4.468,0,0,1,7.258-3.484,4.468,4.468,0,1,0-6.282,6.278A4.441,4.441,0,0,1,856.1,556.973Z" transform="translate(-530.668 -384.829)" fill="#fff" opacity="0.05"/><circle cx="4.472" cy="4.472" r="4.472" transform="translate(334.369 161.134)" fill="#795548"/><circle cx="4.472" cy="4.472" r="4.472" transform="translate(334.369 161.134)" fill="#fff" opacity="0.1"/><path d="M877.339,544.1a4.463,4.463,0,0,1,7.258-3.484,4.468,4.468,0,1,0-6.282,6.282A4.478,4.478,0,0,1,877.339,544.1Z" transform="translate(-542.28 -377.801)" fill="#fff" opacity="0.05"/><circle cx="4.472" cy="4.472" r="4.472" transform="translate(329.212 155.977)" fill="#795548"/><circle cx="4.472" cy="4.472" r="4.472" transform="translate(329.212 155.977)" fill="#fff" opacity="0.1"/><path d="M865.912,532.656a4.463,4.463,0,0,1,7.258-3.484,4.468,4.468,0,1,0-6.26,6.278A4.454,4.454,0,0,1,865.912,532.656Z" transform="translate(-536.011 -371.517)" fill="#fff" opacity="0.05"/><circle cx="4.472" cy="4.472" r="4.472" transform="translate(297.573 127.781)" fill="#795548"/><circle cx="4.472" cy="4.472" r="4.472" transform="translate(297.573 127.781)" fill="#fff" opacity="0.1"/><path d="M796.229,470.562a4.468,4.468,0,0,1,7.258-3.488,4.468,4.468,0,1,0-6.282,6.282A4.441,4.441,0,0,1,796.229,470.562Z" transform="translate(-497.962 -337.619)" fill="#fff" opacity="0.05"/><circle cx="4.472" cy="4.472" r="4.472" transform="translate(279.692 147.726)" fill="#795548"/><circle cx="4.472" cy="4.472" r="4.472" transform="translate(279.692 147.726)" fill="#fff" opacity="0.1"/><path d="M756.809,514.528a4.468,4.468,0,0,1,7.258-3.484,4.468,4.468,0,1,0-6.282,6.282A4.44,4.44,0,0,1,756.809,514.528Z" transform="translate(-476.423 -361.644)" fill="#fff" opacity="0.05"/><circle cx="4.472" cy="4.472" r="4.472" transform="translate(272.816 160.449)" fill="#795548"/><circle cx="4.472" cy="4.472" r="4.472" transform="translate(272.816 160.449)" fill="#fff" opacity="0.1"/><path d="M741.672,542.619a4.468,4.468,0,0,1,7.258-3.484,4.468,4.468,0,1,0-6.269,6.3A4.445,4.445,0,0,1,741.672,542.619Z" transform="translate(-468.167 -377.012)" fill="#fff" opacity="0.05"/><circle cx="4.472" cy="4.472" r="4.472" transform="translate(294.135 155.977)" fill="#795548"/><circle cx="4.472" cy="4.472" r="4.472" transform="translate(294.135 155.977)" fill="#fff" opacity="0.1"/><path d="M788.636,532.712a4.463,4.463,0,0,1,7.258-3.484,4.468,4.468,0,1,0-6.282,6.278A4.427,4.427,0,0,1,788.636,532.712Z" transform="translate(-493.808 -371.573)" fill="#fff" opacity="0.05"/><circle cx="4.472" cy="4.472" r="4.472" transform="translate(294.824 137.756)" fill="#795548"/><circle cx="4.472" cy="4.472" r="4.472" transform="translate(294.824 137.756)" fill="#fff" opacity="0.1"/><path d="M790.169,492.548a4.468,4.468,0,0,1,7.258-3.484,4.468,4.468,0,1,0-6.282,6.282A4.468,4.468,0,0,1,790.169,492.548Z" transform="translate(-494.651 -349.634)" fill="#fff" opacity="0.05"/><circle cx="4.472" cy="4.472" r="4.472" transform="translate(296.543 132.939)" fill="#795548"/><circle cx="4.472" cy="4.472" r="4.472" transform="translate(296.543 132.939)" fill="#fff" opacity="0.1"/><path d="M793.876,481.845a4.463,4.463,0,0,1,7.258-3.484,4.468,4.468,0,1,0-6.251,6.278,4.463,4.463,0,0,1-1.007-2.794Z" transform="translate(-496.643 -343.744)" fill="#fff" opacity="0.05"/><circle cx="4.472" cy="4.472" r="4.472" transform="translate(290.697 161.134)" fill="#795548"/><path d="M781.059,544.1a4.468,4.468,0,0,1,7.258-3.484,4.468,4.468,0,1,0-6.282,6.282,4.455,4.455,0,0,1-.975-2.8Z" transform="translate(-489.673 -377.802)" fill="#fff" opacity="0.05"/><circle cx="4.472" cy="4.472" r="4.472" transform="translate(279.352 142.569)" fill="#795548"/><path d="M756.049,503.158a4.468,4.468,0,0,1,7.258-3.484,4.468,4.468,0,1,0-6.282,6.282A4.441,4.441,0,0,1,756.049,503.158Z" transform="translate(-476.007 -355.432)" fill="#fff" opacity="0.05"/><circle cx="4.472" cy="4.472" r="4.472" transform="translate(284.854 155.637)" fill="#795548"/><path d="M768.169,531.968a4.468,4.468,0,0,1,7.258-3.484,4.468,4.468,0,1,0-6.282,6.282A4.44,4.44,0,0,1,768.169,531.968Z" transform="translate(-482.63 -371.174)" fill="#fff" opacity="0.05"/><circle cx="4.472" cy="4.472" r="4.472" transform="translate(301.016 123.314)" fill="#795548"/><path d="M803.809,460.708a4.468,4.468,0,0,1,7.258-3.484,4.468,4.468,0,1,0-6.282,6.282,4.441,4.441,0,0,1-.975-2.8Z" transform="translate(-502.104 -332.237)" fill="#fff" opacity="0.05"/><circle cx="4.472" cy="4.472" r="4.472" transform="translate(300.671 133.284)" fill="#795548"/><path d="M803.049,482.692a4.468,4.468,0,0,1,7.258-3.488,4.468,4.468,0,1,0-6.282,6.282A4.441,4.441,0,0,1,803.049,482.692Z" transform="translate(-501.688 -344.247)" fill="#fff" opacity="0.05"/><circle cx="4.472" cy="4.472" r="4.472" transform="translate(308.577 129.845)" fill="#795548"/><path d="M820.479,475.108a4.473,4.473,0,0,1,7.258-3.484,4.468,4.468,0,1,0-6.282,6.282,4.446,4.446,0,0,1-.975-2.8Z" transform="translate(-511.212 -340.105)" fill="#fff" opacity="0.05"/><circle cx="4.472" cy="4.472" r="4.472" transform="translate(305.139 149.1)" fill="#795548"/><circle cx="4.472" cy="4.472" r="4.472" transform="translate(307.566 147.077)" fill="#795548"/><path d="M812.877,517.541a4.463,4.463,0,0,1,7.258-3.484,4.468,4.468,0,1,0-6.278,6.278A4.441,4.441,0,0,1,812.877,517.541Z" transform="translate(-507.048 -363.278)" fill="#fff" opacity="0.05"/><circle cx="4.472" cy="4.472" r="4.472" transform="translate(302.735 161.479)" fill="#795548"/><path d="M807.587,544.842a4.463,4.463,0,0,1,7.257-3.484,4.468,4.468,0,1,0-6.282,6.278A4.441,4.441,0,0,1,807.587,544.842Z" transform="translate(-504.162 -378.201)" fill="#fff" opacity="0.05"/><circle cx="4.472" cy="4.472" r="4.472" transform="translate(304.454 152.539)" fill="#795548"/><path d="M811.376,525.132a4.463,4.463,0,0,1,7.258-3.484,4.468,4.468,0,1,0-6.282,6.278A4.44,4.44,0,0,1,811.376,525.132Z" transform="translate(-506.233 -367.432)" fill="#fff" opacity="0.05"/><circle cx="4.472" cy="4.472" r="4.472" transform="translate(312.36 144.973)" fill="#795548"/><circle cx="4.472" cy="4.472" r="4.472" transform="translate(335.83 155.092)" fill="#795548"/><path d="M828.809,508.455a4.463,4.463,0,0,1,7.258-3.484,4.468,4.468,0,1,0-6.278,6.282A4.455,4.455,0,0,1,828.809,508.455Z" transform="translate(-515.759 -358.321)" fill="#fff" opacity="0.05"/><circle cx="4.472" cy="4.472" r="4.472" transform="translate(307.892 157.011)" fill="#795548"/><path d="M818.923,534.94a4.468,4.468,0,0,1,7.258-3.484,4.468,4.468,0,1,0-6.26,6.282A4.441,4.441,0,0,1,818.923,534.94Z" transform="translate(-510.341 -372.771)" fill="#fff" opacity="0.05"/><circle cx="4.472" cy="4.472" r="4.472" transform="translate(321.99 135.692)" fill="#795548"/><path d="M850.049,488a4.468,4.468,0,0,1,7.258-3.484,4.468,4.468,0,1,0-6.282,6.282A4.468,4.468,0,0,1,850.049,488Z" transform="translate(-527.369 -347.148)" fill="#fff" opacity="0.05"/><circle cx="4.472" cy="4.472" r="4.472" transform="translate(318.552 142.224)" fill="#795548"/><path d="M842.469,502.4a4.468,4.468,0,0,1,7.258-3.488,4.468,4.468,0,1,0-6.282,6.282A4.464,4.464,0,0,1,842.469,502.4Z" transform="translate(-523.227 -355.016)" fill="#fff" opacity="0.05"/><circle cx="4.472" cy="4.472" r="4.472" transform="translate(321.301 148.416)" fill="#795548"/><path d="M848.519,516.036a4.468,4.468,0,0,1,7.258-3.484,4.468,4.468,0,1,0-6.278,6.282A4.446,4.446,0,0,1,848.519,516.036Z" transform="translate(-526.529 -362.463)" fill="#fff" opacity="0.05"/><circle cx="4.472" cy="4.472" r="4.472" transform="translate(328.177 161.134)" fill="#795548"/><path d="M863.7,544.1a4.463,4.463,0,0,1,7.258-3.484,4.468,4.468,0,1,0-6.282,6.282A4.45,4.45,0,0,1,863.7,544.1Z" transform="translate(-534.828 -377.801)" fill="#fff" opacity="0.05"/><circle cx="4.472" cy="4.472" r="4.472" transform="translate(333.679 150.82)" fill="#795548"/><circle cx="4.472" cy="4.472" r="4.472" transform="translate(285.934 144.75)" fill="#795548"/><path d="M875.807,521.343a4.468,4.468,0,0,1,7.258-3.484,4.468,4.468,0,1,0-6.282,6.278A4.442,4.442,0,0,1,875.807,521.343Z" transform="translate(-541.438 -365.361)" fill="#fff" opacity="0.05"/><circle cx="4.472" cy="4.472" r="4.472" transform="translate(322.335 155.637)" fill="#795548"/><path d="M850.809,531.968a4.468,4.468,0,0,1,7.258-3.484,4.468,4.468,0,1,0-6.282,6.282A4.441,4.441,0,0,1,850.809,531.968Z" transform="translate(-527.784 -371.174)" fill="#fff" opacity="0.05"/><circle cx="4.472" cy="4.472" r="4.472" transform="translate(323.02 161.134)" fill="#795548"/><path d="M852.309,544.085a4.463,4.463,0,0,1,7.257-3.484,4.468,4.468,0,1,0-6.278,6.282,4.454,4.454,0,0,1-.98-2.8Z" transform="translate(-528.599 -377.789)" fill="#fff" opacity="0.05"/><circle cx="4.472" cy="4.472" r="4.472" transform="translate(309.956 164.917)" fill="#795548"/><path d="M823.507,552.423a4.463,4.463,0,0,1,7.257-3.484,4.468,4.468,0,1,0-6.282,6.278A4.427,4.427,0,0,1,823.507,552.423Z" transform="translate(-512.861 -382.343)" fill="#fff" opacity="0.05"/><circle cx="4.472" cy="4.472" r="4.472" transform="translate(295.169 150.475)" fill="#795548"/><path d="M790.937,520.62a4.463,4.463,0,0,1,7.258-3.484,4.468,4.468,0,1,0-6.273,6.3,4.454,4.454,0,0,1-.984-2.812Z" transform="translate(-495.078 -364.983)" fill="#fff" opacity="0.05"/><circle cx="4.472" cy="4.472" r="4.472" transform="translate(299.637 150.135)" fill="#795548"/><path d="M800.769,519.8a4.472,4.472,0,0,1,7.258-3.484,4.468,4.468,0,1,0-6.282,6.282,4.445,4.445,0,0,1-.975-2.8Z" transform="translate(-500.443 -364.524)" fill="#fff" opacity="0.05"/><circle cx="4.472" cy="4.472" r="4.472" transform="translate(290.356 155.637)" fill="#795548"/><path d="M780.309,531.968a4.468,4.468,0,0,1,7.258-3.484,4.468,4.468,0,1,0-6.282,6.282A4.441,4.441,0,0,1,780.309,531.968Z" transform="translate(-489.263 -371.174)" fill="#fff" opacity="0.05"/><circle cx="4.472" cy="4.472" r="4.472" transform="translate(329.212 166.981)" fill="#795548"/><circle cx="4.472" cy="4.472" r="4.472" transform="translate(329.212 166.981)" fill="#fff" opacity="0.1"/><path d="M865.912,556.916a4.463,4.463,0,0,1,7.258-3.484,4.468,4.468,0,1,0-6.26,6.278A4.464,4.464,0,0,1,865.912,556.916Z" transform="translate(-536.011 -384.772)" fill="#fff" opacity="0.05"/><circle cx="4.472" cy="4.472" r="4.472" transform="translate(324.739 150.82)" fill="#795548"/><circle cx="4.472" cy="4.472" r="4.472" transform="translate(324.739 150.82)" fill="#fff" opacity="0.1"/><path d="M856.1,521.343a4.468,4.468,0,0,1,7.258-3.484,4.468,4.468,0,1,0-6.282,6.278,4.441,4.441,0,0,1-.975-2.794Z" transform="translate(-530.668 -365.361)" fill="#fff" opacity="0.05"/><circle cx="4.472" cy="4.472" r="4.472" transform="translate(312.016 139.475)" fill="#795548"/><circle cx="4.472" cy="4.472" r="4.472" transform="translate(312.016 139.475)" fill="#fff" opacity="0.1"/><path d="M828.069,496.338a4.468,4.468,0,0,1,7.258-3.484,4.468,4.468,0,1,0-6.282,6.282,4.44,4.44,0,0,1-.975-2.8Z" transform="translate(-515.359 -351.705)" fill="#fff" opacity="0.05"/><path d="M671.061,387.964H572.39l10.519-34.814h77.633Z" transform="translate(-312.756 -192.945)" fill="#f55f44"/><path d="M585.871,356.112l71.854.15-.59-2.962-74.227-.15L572.39,387.964h3.856Z" transform="translate(-312.756 -192.945)" fill="#fff" opacity="0.05"/><path d="M669.83,428.38H565.53l4.146-5.33h96.6Z" transform="translate(-309.007 -231.139)" fill="#6c63ff"/><path d="M669.83,428.38H565.53l4.146-5.33h96.6Z" transform="translate(-309.007 -231.139)" fill="#f55f44"/><path d="M669.83,428.38H565.53l4.146-5.33h96.6Z" transform="translate(-309.007 -231.139)" opacity="0.1"/><path d="M759.5,352.52l8.922,31.992,4.232.213-9.979-32.205Z" transform="translate(-414.993 -192.601)" opacity="0.05"/><path d="M515.407,224.923c-.218,15.286-13.113,27.375-28.4,27.375H484.88a7.189,7.189,0,0,0-5.035,2.032,7,7,0,0,0-2.046,3.57,6.554,6.554,0,0,0-.213,1.692v26.984a27.03,27.03,0,0,1-4.264,14.638,38.649,38.649,0,0,0-6.35,20.825h0a13.014,13.014,0,0,1-13.25,13,13.293,13.293,0,0,1-12.755-13.431v-6.75l-3.543.417v6.759a13.018,13.018,0,0,1-13.254,13,13.289,13.289,0,0,1-12.751-13.431V318.2c-3.547,1.479-23.641,1.479-29.221.05l-1.515-.118v3.91a13.014,13.014,0,0,1-13.25,13,13.29,13.29,0,0,1-12.755-13.431V316l-1.184-.109v6.146a13.282,13.282,0,0,1-.4,3.227,13.032,13.032,0,0,1-12.851,9.777,13.232,13.232,0,0,1-12.637-11.608,16.05,16.05,0,0,1-.118-1.814V293.376a43.255,43.255,0,0,1,9.222-26.762,8.019,8.019,0,0,0,.222-9.471c-6.618-9.693-16.407-26.05-16.085-37.649a12.7,12.7,0,0,1,3.1-8.582c.127-.141.259-.281.39-.413,9.526-9.979,26.309-2.127,24.844,11.585a38.487,38.487,0,0,0,1.007,13.712,42.034,42.034,0,0,0,2.658,7.353,12.465,12.465,0,0,0,12.755,7.09,43.967,43.967,0,0,1,5.33-.318h54.645a15.354,15.354,0,0,0,14.515-10.433,14.9,14.9,0,0,0,.826-4.953V192.029a8.274,8.274,0,0,1,8.537-8.274,8.038,8.038,0,0,1,5.724,2.644,8.913,8.913,0,0,1,2.3,5.96,4.382,4.382,0,0,0,4.386,4.382h25.755A27.765,27.765,0,0,1,515.4,224.923Z" transform="translate(-238.586 -183.72)" fill="#f3ad55"/><path d="M361.188,491.221A13.032,13.032,0,0,1,348.337,501,13.232,13.232,0,0,1,335.7,489.388C343.574,487.256,354.483,485.8,361.188,491.221Z" transform="translate(-246.704 -349.672)" fill="#fbdca3"/><path d="M421.123,491.221A13.023,13.023,0,0,1,408.277,501a13.214,13.214,0,0,1-12.637-11.608C403.514,487.256,414.423,485.8,421.123,491.221Z" transform="translate(-279.456 -349.672)" fill="#fbdca3"/><path d="M546.213,491.221A13.027,13.027,0,0,1,533.363,501a13.206,13.206,0,0,1-12.633-11.608C528.6,487.256,539.509,485.8,546.213,491.221Z" transform="translate(-347.805 -349.672)" fill="#fbdca3"/><path d="M611.358,491.221A13.032,13.032,0,0,1,598.507,501a13.214,13.214,0,0,1-12.637-11.608C593.744,487.256,604.653,485.8,611.358,491.221Z" transform="translate(-383.398 -349.672)" fill="#fbdca3"/><path d="M350.139,262.63c-9.185-3.688-20.412-10.433-29.339-16.3a12.7,12.7,0,0,1,3.1-8.582c.127-.141.259-.281.39-.413,9.526-9.979,26.309-2.127,24.844,11.585A38.486,38.486,0,0,0,350.139,262.63Z" transform="translate(-238.563 -210.54)" fill="#fbdca3"/><path d="M410,329.742s25.288,31.833,66.679-.082" transform="translate(-287.302 -263.445)" fill="#fbdca3"/><path d="M585.61,199.36s15.368,20.094,0,44.906" transform="translate(-383.256 -192.249)" fill="#fbdca3"/><path d="M659.088,350.51s-13.535,16.815-.181,30.16" transform="translate(-420.088 -274.838)" fill="#fbdca3"/><path d="M614.906,324.451c-1,.943-.662,1.855-.966,3.239L570,316.177c2.363-1.814,5.293-3.983,6.264-6.867C581.526,313.4,591.94,320.255,614.906,324.451Z" transform="translate(-374.727 -252.326)" opacity="0.1"/><path d="M617.313,321.51a7,7,0,0,0-2.046,3.57L572.43,313.912a15.291,15.291,0,0,0,5.153-7.212C582.854,310.791,594.343,317.314,617.313,321.51Z" transform="translate(-376.054 -250.9)" fill="#00a896"/><path d="M587.34,311.91s13.4,10.079,35.861,13.2" transform="translate(-384.201 -253.747)" opacity="0.1"/><path d="M587.34,309.31s13.4,10.079,35.861,13.2" transform="translate(-384.201 -252.326)" fill="#f3ad55"/><path d="M661.19,292.908s22.458,7.09,28.368-15.368Z" transform="translate(-424.553 -234.967)" opacity="0.1"/><path d="M661.19,290.3s22.458,7.094,28.368-15.363Z" transform="translate(-424.553 -233.546)" fill="#fbdca3"/><ellipse cx="2.363" cy="4.137" rx="2.363" ry="4.137" transform="translate(274.462 34.3)" fill="#383f4d"/><path d="M351.081,410.485l4.726-37.825s-14.189,22.458-4.726,37.825" transform="translate(-253.331 -286.941)" opacity="0.1"/><path d="M358.388,372.66s-14.184,22.458-4.731,37.825Z" transform="translate(-254.741 -286.941)" fill="#fbdca3"/></g></svg>