<svg xmlns="http://www.w3.org/2000/svg" width="16.735" height="19.125" viewBox="0 0 16.735 19.125"><path d="M16.735,14.344c-1.047,0-1.168-1.2-2.783-1.2s-1.749,1.2-2.792,1.2-1.175-1.2-2.792-1.2c-1.6,0-1.764,1.2-2.783,1.2-1.051,0-1.166-1.2-2.792-1.2S1.05,14.344,0,14.344V11.356A1.793,1.793,0,0,1,1.793,9.563h.6V4.184H4.781V9.563H7.172V4.184H9.563V9.563h2.391V4.184h2.391V9.563h.6a1.793,1.793,0,0,1,1.793,1.793Zm0,4.781H0V15.539c1.62,0,1.747-1.2,2.792-1.2s1.167,1.2,2.792,1.2c1.6,0,1.764-1.2,2.783-1.2,1.051,0,1.165,1.2,2.792,1.2s1.747-1.2,2.792-1.2c1.027,0,1.167,1.2,2.783,1.2ZM3.586,3.586a1.192,1.192,0,0,1-1.2-1.2c0-1.158,1.2-.859,1.2-2.391.448,0,1.2,1.1,1.2,2.092S4.249,3.586,3.586,3.586Zm4.781,0a1.192,1.192,0,0,1-1.2-1.2c0-1.158,1.2-.859,1.2-2.391.448,0,1.2,1.1,1.2,2.092S9.03,3.586,8.367,3.586Zm4.781,0a1.192,1.192,0,0,1-1.2-1.2c0-1.158,1.2-.859,1.2-2.391.448,0,1.2,1.1,1.2,2.092S13.812,3.586,13.149,3.586Z" fill="#05668d"/></svg>