<svg xmlns="http://www.w3.org/2000/svg" width="15.85" height="15.851" viewBox="0 0 15.85 15.851"><path d="M3.894,19.233a.507.507,0,0,0,.366-.152l1.707-1.707,1.41,1.41a.513.513,0,0,0,.366.152.507.507,0,0,0,.366-.152.518.518,0,0,0,0-.732L6.7,16.642,8.6,14.736A6.443,6.443,0,1,0,7.873,14L5.968,15.91,4.557,14.5a.513.513,0,0,0-.366-.152.507.507,0,0,0-.366.152.518.518,0,0,0,0,.732l1.41,1.41L3.528,18.349a.518.518,0,0,0,.366.884ZM8.959,6A5.406,5.406,0,1,1,7.378,9.823,5.38,5.38,0,0,1,8.959,6Z" transform="translate(-3.377 -3.382)" fill="#05668d"/></svg>